<?xml version="1.0" encoding="UTF-8"?>
<svg id="New_Layer" data-name="New Layer" xmlns="http://www.w3.org/2000/svg" xmlns:xlink="http://www.w3.org/1999/xlink" viewBox="0 0 935.5 371.76">
  <defs>
    <style>
      .cls-1 {
        fill: url(#linear-gradient);
      }

      .cls-1, .cls-2, .cls-3, .cls-4, .cls-5, .cls-6, .cls-7, .cls-8, .cls-9, .cls-10, .cls-11, .cls-12, .cls-13, .cls-14, .cls-15, .cls-16, .cls-17 {
        fill-rule: evenodd;
        stroke-width: 0px;
      }

      .cls-2 {
        fill: url(#linear-gradient-9);
      }

      .cls-3 {
        fill: url(#linear-gradient-8);
      }

      .cls-4 {
        fill: url(#linear-gradient-3);
      }

      .cls-5 {
        fill: url(#linear-gradient-2);
      }

      .cls-6 {
        fill: url(#linear-gradient-4);
      }

      .cls-7 {
        fill: url(#linear-gradient-5);
      }

      .cls-8 {
        fill: url(#linear-gradient-7);
      }

      .cls-9 {
        fill: url(#linear-gradient-6);
      }

      .cls-10 {
        fill: url(#linear-gradient-14);
      }

      .cls-11 {
        fill: url(#linear-gradient-11);
      }

      .cls-12 {
        fill: url(#linear-gradient-13);
      }

      .cls-13 {
        fill: url(#linear-gradient-10);
      }

      .cls-14 {
        fill: url(#linear-gradient-12);
      }

      .cls-15 {
        fill: #fff;
      }

      .cls-16 {
        fill: #f04e25;
      }
    </style>
    <linearGradient id="linear-gradient" x1="903" y1="24.66" x2="923.1" y2="24.66" gradientUnits="userSpaceOnUse">
      <stop offset="0" stop-color="#fff"/>
      <stop offset="0" stop-color="#f04e25"/>
    </linearGradient>
    <linearGradient id="linear-gradient-2" x1="383.65" y1="306.84" x2="383.65" y2="308.52" gradientUnits="userSpaceOnUse">
      <stop offset=".96" stop-color="#f04e25"/>
      <stop offset="1" stop-color="#f04e25"/>
    </linearGradient>
    <linearGradient id="linear-gradient-3" x1="810.08" y1="306.84" x2="810.08" y2="308.52" gradientUnits="userSpaceOnUse">
      <stop offset="1" stop-color="#fff"/>
      <stop offset="1" stop-color="#f04e25"/>
    </linearGradient>
    <linearGradient id="linear-gradient-4" x1="171" y1="306.84" x2="171" y2="308.52" xlink:href="#linear-gradient"/>
    <linearGradient id="linear-gradient-5" x1="282.88" y1="306.84" x2="282.88" y2="308.52" xlink:href="#linear-gradient"/>
    <linearGradient id="linear-gradient-6" x1="489" y1="306.84" x2="489" y2="308.52" xlink:href="#linear-gradient"/>
    <linearGradient id="linear-gradient-7" x1="594.02" y1="306.84" x2="594.02" y2="308.52" xlink:href="#linear-gradient"/>
    <linearGradient id="linear-gradient-8" x1="693.21" y1="306.84" x2="693.21" y2="308.52" xlink:href="#linear-gradient"/>
    <linearGradient id="linear-gradient-9" x1="382.11" y1="295.25" x2="390.9" y2="295.25" xlink:href="#linear-gradient"/>
    <linearGradient id="linear-gradient-10" x1="136" y1="313.81" x2="162" y2="313.81" xlink:href="#linear-gradient"/>
    <linearGradient id="linear-gradient-11" x1="29" y1="314.76" x2="56" y2="314.76" xlink:href="#linear-gradient"/>
    <linearGradient id="linear-gradient-12" x1="61.8" y1="319.83" x2="91" y2="319.83" gradientUnits="userSpaceOnUse">
      <stop offset="1" stop-color="#fff"/>
      <stop offset="1" stop-color="#f04e25"/>
    </linearGradient>
    <linearGradient id="linear-gradient-13" x1="98.04" y1="319.99" x2="127.93" y2="319.99" xlink:href="#linear-gradient-12"/>
    <linearGradient id="linear-gradient-14" x1="166.15" y1="319.88" x2="190.4" y2="319.88" xlink:href="#linear-gradient"/>
  </defs>
  <path class="cls-15" d="m902.8,1.36c-9.2,2.8-16.8,13.6-16.8,24,0,7.9,5.3,16.7,12.5,20.9,11.8,6.9,27.1,2.8,34.2-9.2,2.4-4.1,2.8-5.9,2.8-12.3s-.4-8.2-2.8-12.2c-6.2-10.7-17.7-15-29.9-11.2Zm20.1,4.7c12.1,8,13.7,25.5,3.2,35-4.9,4.4-9.9,6-17.1,5.5-18.5-1.3-26.8-24.1-13.5-37.3,4.9-5,9.1-6.5,17.1-6.2,4.8.2,7.1.9,10.3,3Z"/>
  <path class="cls-1" d="m903,24.66v14.1h2.5c2.4,0,2.5-.3,2.5-6,0-3.3.3-6,.8-6,1.8.1,3.5,2.1,5.7,6.9,2.1,4.5,2.7,5.1,5.5,5.1h3.1l-3.5-6.6-3.5-6.7,2.4-1.9c3-2.4,3.3-6.6.6-9.9-1.6-1.9-3-2.4-9-2.7l-7.1-.4v14.1Zm11.7-7.2c1.9,2.4-.2,5.3-3.7,5.3-2.7,0-3-.3-3-3.3,0-1.9.3-3.7.7-4,1-1,4.6.2,6,2Z"/>
  <path class="cls-5" d="m422.1,11.56c-1.3,2-10.1,14.9-19.5,28.7-9.4,13.7-28,41.2-41.3,61l-24.2,36,20.2.5c18.4.5,20.2.7,19.9,2.2-.2,1.6-8.7,25.2-27.7,77.8-3.5,9.6-6.8,18.8-7.5,20.5-.6,1.6-.7,2.5-.3,2,1.2-1.4,84.3-125.7,86.6-129.5l1.9-3h-20.1c-18.2,0-20.1-.2-20.1-1.7,0-.9,3-9.8,6.6-19.7,3.7-10,7.7-21,9-24.6,1.2-3.6,6.1-17,10.8-29.9s8.5-23.6,8.3-23.7c-.1-.1-1.3,1.4-2.6,3.4Z"/>
  <polygon class="cls-16" points="0 43.76 0 55.76 23.5 55.76 47 55.76 47 116.26 47 176.76 60.5 176.76 74 176.76 74.2 116.46 74.5 56.26 97.8 55.96 121 55.76 121 43.76 121 31.76 60.5 31.76 0 31.76 0 43.76"/>
  <path class="cls-4" d="m749.1,33.96c.6,1.3,2.6,4.3,4.4,6.8,6.8,9.6,40.6,60,41.1,61.4.4.9-5.5,10.3-15.3,24.3-8.8,12.5-19.5,28-23.8,34.3s-8.7,12.5-9.8,13.7l-2,2.3h31.1l17.4-26c9.5-14.3,17.8-25.9,18.4-25.7.6.1,8.9,11.8,18.4,25.9l17.2,25.8h15.5c12.1,0,15.3-.3,14.7-1.3-.5-.6-11.7-17.2-25.1-36.8-13.4-19.7-24.3-36-24.3-36.4,0-.3,10.6-16.2,23.5-35.1,12.9-19,23.5-34.7,23.5-35,0-.2-6.7-.4-14.9-.4h-14.8l-16.2,24.5c-8.9,13.5-16.6,24.5-17,24.5-.5,0-3.6-4.4-7-9.8-3.4-5.3-10.5-16.2-15.9-24.2l-9.7-14.5-15.3-.3-15.3-.3,1.2,2.3Z"/>
  <path class="cls-6" d="m197.8,88.46l-.3,22.8h-53l-.3-22.3-.2-22.2h-20v111h20l.2-23.8.3-23.7h53v47h20l.3-55.1.2-55.1-5.2-.7c-2.9-.3-7.4-.6-10-.6h-4.8l-.2,22.7Z"/>
  <path class="cls-7" d="m236.9,72.36c-.2,3.8-.2,22.9.1,42.4l.5,35.5,2.7,5.7c7.2,15.4,22,23.8,42,23.8,15.5,0,26.2-3.6,34.9-11.7,2.8-2.6,6-6.6,7.1-8.8,4.5-8.6,4.8-12,4.8-53.2v-39.1l-7.3-.7c-4-.4-8.4-.5-9.7-.3l-2.5.3-.5,39.5c-.5,39-.5,39.6-2.9,44.3-5.3,10.8-18.9,15.3-33.2,11.1-6.5-1.9-12.9-8-14.7-14.1-.8-2.9-1.2-15-1.2-42.2v-38.1h-4.7c-2.7,0-7.1-.3-9.9-.6l-5.2-.7-.3,6.9Z"/>
  <path class="cls-9" d="m441.8,66.46c-1.7.4-1.8,3.9-1.8,55.9v55.4h24.3c27.4-.1,36.2-1.2,46.3-5.9,9.1-4.3,17.7-12.7,21.9-21.6,4.3-9.2,5.5-15.2,5.5-28.7,0-17.6-4.2-29.8-13.5-39.3-9.2-9.5-19-13.7-35.6-15.5-9.3-1-43.8-1.2-47.1-.3Zm57.4,20.6c6.7,3.3,11.1,8,14.7,15.7,2.1,4.6,2.6,7.3,2.9,16.7.4,9.4.1,12.4-1.8,18.4-1.8,6.1-3,8.1-7.8,12.9-7.7,7.6-11.9,9-29.7,9.6-7.9.3-14.6.1-15.3-.4-1.1-.8-1.4-7.9-1.3-37,.1-19.8.1-36.8.1-37.7,0-1.6,1.4-1.7,16.3-1.3,15.2.4,16.5.5,21.9,3.1Z"/>
  <path class="cls-8" d="m553.4,66.66c-.2.2-.4,25.3-.4,55.8v55.3h81v-18l-30.2-.2-30.3-.3-.3-14.6c-.2-14.5-.2-14.7,2-15.3,1.3-.3,13.9-.6,28.1-.6h25.8l-.3-8.3-.3-8.2-27.7-.3-27.8-.2v-27h29.8c21.8,0,30.1-.3,31-1.2,1.7-1.7,1.6-16.8,0-16.9-6.1-.3-80.1-.3-80.4,0Z"/>
  <path class="cls-3" d="m669.9,66.46l-20.6.3-.6,31.7c-.9,40-.9,68.7-.1,74.7l.7,4.7,9.6-.3,9.6-.3.3-21.8.2-21.8,18.4.3c16.8.3,18.7.5,21.3,2.4,4.9,3.5,6.1,7.6,7.1,22.9.5,7.8,1.4,15.1,2.1,16.3,1.1,2,1.9,2.2,10.5,2.2,5.1,0,9.5-.3,9.8-.6.4-.3.2-2-.4-3.7-.5-1.8-1.3-9.8-1.8-17.8-.6-11-1.3-15.8-2.8-19.1-1.8-4-3.1-5.5-10.1-10.7l-2.4-1.7,5.1-3.2c10.7-6.9,14.7-19.4,10.6-33.1-1.7-6-7.8-13.2-13.4-16.1-9.6-4.9-18.7-5.8-53.1-5.3Zm38.4,18.7c5.4,2.7,8,6.9,8.5,13.5.4,7.4-2.6,13.7-8.3,16.8-3.7,2.1-5.2,2.3-21.7,2.3s-17.8-.2-17.9-1.8c-.1-3.2-.1-18.6,0-26l.1-7.3,17.8.3c14.9.3,18.3.6,21.5,2.2Z"/>
  <path class="cls-15" d="m849.4,206.16c-9.7,4.3-10,17.1-.4,22.1,1.5.8,6.1,2.2,10.1,3.1,11.8,2.6,14.9,4.9,14.9,10.9,0,4.2-1.8,6.5-6.7,8.7-5,2.2-11.3,1.9-16.5-.8-2.8-1.5-5.8-6-5.8-8.9,0-.9-.9-1.5-2.5-1.5-2.2,0-2.4.3-1.8,3.2,1.5,8.2,8.5,12.8,19.3,12.8,11.6,0,19-5.5,19-14.2,0-4.8-4.4-10-9.7-11.6-2.1-.6-7.1-2-11.1-3.2-9.2-2.6-11.4-4.7-11-10.2.4-5.9,3.8-8.1,11.9-8.1,7,.1,10.5,2,12.8,7.1,1.7,3.7,5.1,4.4,5.1,1.1,0-3.7-3.8-8.6-8-10.3-4.9-1.9-15.3-2-19.6-.2Z"/>
  <path class="cls-15" d="m439.9,206.46c0,.5-.1,11.5-.2,24.5l-.2,23.8h15.3c14.5,0,15.2-.1,15.2-2s-.7-2-13-2h-13v-22.5c0-21.8-.1-22.5-2-22.5-1.1,0-2,.3-2.1.7Z"/>
  <path class="cls-15" d="m494.5,222.96c-3.7,9.5-8,20.6-9.5,24.5l-2.8,7.3h2.3c1.9,0,2.8-1.2,5.2-7.3l2.9-7.2,11.3-.3c6.4-.1,11.8.2,12.5.7.6.5,2.3,3.9,3.6,7.5,2.1,5.4,2.9,6.6,4.8,6.6,1.2,0,2.2-.3,2.2-.8,0-.4-4.3-11.4-9.7-24.5l-9.6-23.7h-6.4l-6.8,17.2Zm15.5.2c4.5,11.1,4.7,12.6,2.3,12.7-3.6.2-16.8-.3-17.2-.7-.4-.3,6.1-17.7,8.2-21.8,1.3-2.6,2.1-1.4,6.7,9.8Z"/>
  <path class="cls-15" d="m542,230.26v24.5h5v-19.5c0-10.7.4-19.5.8-19.5.5,0,4.5,8.7,8.9,19.2,7.2,17.2,8.3,19.3,10.4,19.3s2.8-1.2,5.5-8c8-20,12.4-30,13.4-30.3.7-.3,1,6,1,19.2,0,18.9.1,19.6,2,19.6s2-.7,2-24.6v-24.5l-3.2.3c-3.3.3-3.3.4-11.5,20.8-4.5,11.3-8.6,20.6-9.1,20.8-.5.1-3.7-6.7-7.1-15.2-10.7-26.9-10.5-26.6-14.6-26.6h-3.5v24.5Z"/>
  <polygon class="cls-15" points="611 230.26 611 254.76 613.5 254.76 616 254.76 616 230.26 616 205.76 613.5 205.76 611 205.76 611 230.26"/>
  <path class="cls-15" d="m635.2,230.26l-.4,24.5h5.2v-20.5c0-11.7.4-20.5.9-20.5s2.8,3,5.2,6.7c2.3,3.8,8.2,13,13.2,20.5,8.1,12.4,9.2,13.8,11.8,13.8h2.9v-24.5c0-23.8-.1-24.5-2-24.5s-2,.7-2,21.1c0,15.8-.3,21-1.2,20.7-.6-.2-3.9-4.9-7.2-10.4-3.4-5.5-9.2-14.8-13-20.7-6.3-9.8-7.2-10.7-10-10.7h-3.1l-.3,24.5Z"/>
  <path class="cls-15" d="m702.3,221.46c-3.4,8.7-7.7,19.7-9.6,24.5-3.5,8.7-3.5,8.8-1.3,8.8,1.8,0,2.9-1.4,5.5-7.5l3.3-7.5h11.3c7.8,0,11.6.4,12.3,1.2.5.7,2.1,4,3.4,7.3,1.8,4.5,3,6.1,4.6,6.3,1.2.2,2.2,0,2.2-.5,0-.4-3.9-10.3-8.6-21.8-4.7-11.6-9-22.2-9.6-23.8-.8-2.2-1.6-2.7-4.2-2.7q-3.1,0-9.3,15.7Zm15.1,2.1c4.1,10.4,4.3,12.1,1.9,12.3-2.9.3-16.8-.3-17.2-.6-.3-.3,7.5-20.9,8.6-22.8,1-1.6,3,1.8,6.7,11.1Z"/>
  <path class="cls-15" d="m737,207.76c0,1.9.7,2,9,2h9v22.5c0,21.8.1,22.5,2,22.5s2-.7,2-22c0-16.8.3-22.2,1.3-22.5,1.3-.5,9.7-1.3,14-1.4,1.7-.1,2.7-.6,2.7-1.6,0-1.3-2.9-1.5-20-1.5-19.3,0-20,.1-20,2Z"/>
  <path class="cls-15" d="m792,230.26v24.5h17c14.4,0,17-.2,17-1.5,0-1.1-1.1-1.5-4.2-1.5-10.6-.1-24.4-1.4-25-2.4-1.3-1.9-.9-15.1.5-16.9,1-1.4,3.4-1.7,13.7-1.9,16.7-.4,16.4-2.1-.5-2.8l-13-.5-.6-3c-.9-4.1-1-11-.3-12.9.5-1.4,2.8-1.6,15-1.6,13.7,0,14.4-.1,14.4-2s-.7-2-17-2h-17v24.5Z"/>
  <path class="cls-17" d="m17.4,273.56c.8,1.3,870.3,1.5,871.1.2.4-.7-141.8-1-435.5-1-239.9,0-435.9.4-435.6.8Z"/>
  <path class="cls-2" d="m383.6,292.06c-1.2.9-1.7,2.3-1.4,4.2.2,2.5.8,3.1,3.3,3.3,1.9.3,3.3-.2,4.2-1.4,1.7-2.4,1.7-3-.7-5.4s-3-2.4-5.4-.7Z"/>
  <path class="cls-15" d="m404,292.96c-2.9,2-3.6,3.1-4,6.8s-.9,4.6-2.7,4.8c-3.3.5-3.2,4.8.2,5.6l2.5.6v25.1l3.8-.3,3.7-.3.3-12.8.3-12.7h4.4c4.1,0,4.5-.2,4.5-2.4s-.5-2.5-4.7-2.8c-4-.2-4.9-.7-5.1-2.4-.5-3.4,2.5-5.7,6.4-4.9,3,.5,3.4.3,4-2,.8-3.4.4-3.7-5.3-4.2-3.9-.4-5.5,0-8.3,1.9Z"/>
  <path class="cls-13" d="m136.2,313.46l.3,21.8,3.3.3,3.2.3v-6.5c0-3.6.4-6.7.9-7.1.6-.3,2.3,1.4,3.9,3.7,5.1,7.4,7.8,9.8,11.2,9.8,1.6,0,3-.3,3-.8,0-.4-2.5-4-5.5-8s-5.5-7.7-5.5-8.2c0-.4,1.9-3.2,4.2-6.2,2.2-2.9,4.5-5.9,5.1-6.6.7-.9,0-1.2-2.9-1.2-3.6.1-4.2.5-8.2,6-2.4,3.3-4.8,5.8-5.3,5.4-.5-.3-.9-5.9-.9-12.5v-11.9h-7l.2,21.7Z"/>
  <path class="cls-15" d="m459,311.16c0,18,.1,19.5,2.1,22,1.6,2,2.9,2.6,5.8,2.6,2.1,0,4-.2,4.3-.5,1.1-1.2-.5-5.3-2.3-5.8s-1.9-1.7-1.9-19.1v-18.6h-8v19.4Z"/>
  <path class="cls-15" d="m212.7,294.46c-.4.3-.7,9.8-.7,21v20.3l10.8-.1c5.9,0,12.3-.6,14.1-1.3,4.9-1.8,7.6-5.8,7.6-11.3,0-3.9-.5-4.9-3.6-7.7l-3.5-3.1,2.3-3.5c4-5.8,1.6-12-5.6-14-4-1.1-20.4-1.4-21.4-.3Zm19.7,6.9c.9.8,1.6,2.6,1.6,3.9,0,3.9-2.5,5.5-8.6,5.5h-5.4v-11h5.4c3.6,0,6,.5,7,1.6Zm3,17.6c2.1,3,2,5-.5,8.2-1.8,2.3-2.7,2.6-8.5,2.6h-6.4v-13h6.9c6.1,0,7.2.3,8.5,2.2Z"/>
  <path class="cls-15" d="m513,295.56c-4.9,2.4-7.6,8-6,12.6,1.5,4.8,4,6.6,11.6,8.7,7.5,2.1,10.4,4.2,10.4,7.4,0,6-9,7.4-15.8,2.5l-4.2-3-1.6,2.5c-1.4,2.1-1.4,2.8-.3,4.2,3.9,4.7,15.6,6.7,22.3,3.9,4.6-1.9,6.6-5.2,6.6-10.6,0-7.5-3.3-10.5-14-13-6.5-1.5-8-2.5-8-5.5,0-5.1,8.1-7.3,14.2-3.8,2.8,1.7,3,1.7,4.4-.1,2.2-3.1,1.7-4.3-2.6-6-5.3-2.1-12.6-2-17,.2Z"/>
  <path class="cls-15" d="m684.2,295.76c-6.3,3.9-7.5,12.5-2.3,17.3,1.4,1.4,5.2,3.2,8.4,4,10.2,2.7,13.1,6.3,8.7,10.7-3.4,3.4-9.5,2.4-14.7-2.3-2.2-2-2.3-2-4.3-.2-3.2,2.9-2.1,5.7,3.2,8.3,5.6,2.8,14.1,3.1,19.2.7,5.8-2.8,8.2-10.5,5.1-16.5-1.8-3.4-4.9-5.2-12-6.9-9.2-2.2-11.5-5.1-7.4-9.2,1.7-1.7,3-2,6.6-1.6,2.4.2,5.3,1.3,6.4,2.3,1.9,1.7,2,1.7,3.7-.7,2.4-3.4,2.2-4.2-1.8-6.1-5-2.5-14.5-2.4-18.8.2Z"/>
  <path class="cls-11" d="m29.6,296.96c-.8,3-.8,27.3,0,33.2l.7,4.6h25.7v-2.5q0-2.5-9.4-2.5c-8.9,0-9.4-.1-10-2.3-.3-1.2-.6-9.1-.6-17.5v-15.2h-2.9c-2.1,0-3,.6-3.5,2.2Z"/>
  <path class="cls-15" d="m361.8,297.46c-2.4.4-2.8.9-2.8,3.9s-.3,3.4-2.5,3.4c-2,0-2.5.5-2.5,2.4,0,1.7.7,2.6,2.5,3,2.4.6,2.5.9,2.5,9.6,0,9.7,1,13.1,4.4,15,4.4,2.3,12.6,1.2,12.6-1.8,0-2.8-1.3-3.8-5-3.8l-3.5.1-.3-9.8-.3-9.7h4.6c4.1,0,4.5-.2,4.5-2.5s-.4-2.5-4.4-2.5c-4.4,0-4.5,0-4.8-3.7-.3-3.9-.8-4.2-5-3.6Z"/>
  <path class="cls-15" d="m719.8,297.46c-2.2.3-2.7,1-3,3.6-.2,2.4-.8,3.3-2.5,3.5s-2.3,1-2.3,2.7.6,2.5,2.3,2.7c2.1.3,2.2.8,2.7,11.1.5,10.1.7,10.9,3,12.7,3.2,2.4,6.5,3,10.7,1.8,2.9-.8,3.4-1.3,2.9-3.1-.3-1.2-.6-2.5-.6-2.8,0-.4-1.7-.6-3.7-.5l-3.8.1-.3-9.8-.3-9.7h4.1c3.6,0,4-.2,4-2.5s-.4-2.5-3.9-2.5c-3.9,0-4-.1-4.3-3.7-.3-3.9-.8-4.2-5-3.6Z"/>
  <path class="cls-15" d="m546.5,298.96c-.2.7-.5,2.2-.7,3.3-.2,1.2-1.2,2.1-2.6,2.3-3.3.5-3.1,5.2.2,5.2,2.4,0,2.4.2,2.8,10.6.3,10.2.4,10.7,3.1,13,4.7,4,14.9,2.6,13.1-1.9-.4-1.1-1.7-1.7-3.8-1.7-4.9,0-5.6-1.4-5.6-11.2v-8.8h4.5c4.1,0,4.5-.2,4.5-2.4s-.5-2.5-4.2-2.8c-4-.3-4.3-.5-4.6-3.6-.3-2.8-.7-3.2-3.3-3.2-1.6,0-3.1.6-3.4,1.2Z"/>
  <path class="cls-15" d="m859.9,302.16c-1.1,2.3-1.6,2.5-5.4,1.9-2.3-.3-5.9,0-7.9.7-6.5,2.1-8.7,10.5-4.2,15.7l2.5,2.8-2.7,2.2c-2.5,2-2.6,2.3-1.5,5.3s1,3.4-1.3,5.3c-3.6,2.8-3,7.4,1.5,10.4,2.7,1.8,4.8,2.3,10.3,2.3,7.2,0,9.7-.8,13.6-4.3,1.6-1.5,2.2-3.2,2.2-6.2,0-6.1-2.3-7.8-11.8-8.5-7-.5-7.7-.7-8-2.8-.3-2,.1-2.2,3.8-2.2,9.9,0,15.4-6.7,11.8-14.5-1-2.2-.8-2.8,1-4.8,2.3-2.4,2.9-4.7,1.3-4.7-.5,0-1.6-.3-2.5-.6-1-.4-1.9.3-2.7,2Zm-4.8,7.6c2.7,1.5,2.6,7.5-.2,9-5,2.7-9.5-2.1-7-7.6,1.1-2.6,3.9-3.1,7.2-1.4Zm2.3,27c5.3,2,1.6,7-5.1,7-7.1,0-10.6-3.3-7.1-6.8,1.4-1.4,8.7-1.6,12.2-.2Z"/>
  <path class="cls-14" d="m69.3,305.86c-5.1,2.5-7.4,7-7.5,14.4-.1,9.4,5.6,15.5,14.5,15.5,9.5,0,14.7-5.6,14.7-15.8,0-7.9-1.9-11.5-7.5-14.2-5.3-2.5-8.9-2.5-14.2.1Zm12.4,6.1c1.9,1.7,2.3,3.2,2.3,7.8,0,7.6-1.8,10-7.4,10s-7.6-2.7-7.6-9.8c0-9,7-13.4,12.7-8Z"/>
  <path class="cls-12" d="m107.3,304.86c-7.6,2.3-11.8,14.8-7.6,22.9,5.5,10.7,21.2,10.7,26.5,0,3.5-6.9,1.5-17-4.2-21.2-3.1-2.2-10.4-3.1-14.7-1.7Zm11.2,7.5c1.9,2.1,2.5,3.8,2.5,7.4,0,6.5-2.8,10-7.9,10-6,0-9.1-5.1-7.7-12.5,1.4-7.3,8.5-9.9,13.1-4.9Z"/>
  <path class="cls-10" d="m175,304.36c-6.2,2.2-9,6.7-7.1,11.7,1.2,3.1,2.1,3.7,9.6,6.2,5.2,1.7,6,2.3,6,4.5,0,3.9-4.2,4.8-9.6,2.2-4-2-4.4-2-6.1-.5-2.7,2.4-2.3,3.2,2.8,5.5,9.8,4.3,19.8.3,19.8-7.8,0-4.7-3.7-8-9.9-9-8.1-1.2-9.6-7.4-1.8-7.4,1.9,0,4.3.5,5.4,1.1,1.7.8,2.3.7,3.5-.8.7-1,1.4-2,1.4-2.3.1-2-10.6-4.6-14-3.4Z"/>
  <path class="cls-15" d="m259,305.46c-4.3,2.2-8,9.1-8,14.7s3.3,11.9,7.5,13.9c6.5,3.1,15.7,1.8,19.5-2.8,1.3-1.5,1.1-2-.9-3.6q-2.4-1.9-4.6.1c-4.4,4.1-12.3,1.8-13.8-4.1-.5-1.8.1-1.9,9.8-1.9,6.3,0,10.6-.4,11-1.1,1.4-2.1-.6-10-3.3-13-3.5-3.9-11.8-5-17.2-2.2Zm11.2,5.5c.9.7,1.9,2.3,2.3,3.5.6,2.2.4,2.3-6.4,2.3-5.6,0-7.1-.3-7.1-1.5,0-4.2,7.6-7.1,11.2-4.3Z"/>
  <path class="cls-15" d="m293.5,304.46c-1.2.2-3.3,1.4-4.8,2.6-2.6,2.1-2.7,2.3-1.2,4.4l1.6,2.2,3.2-1.9c1.8-1.1,4.6-2,6.3-2,5.9,0,7.2,5.3,1.7,6.6-8.5,1.9-10.7,2.8-12.9,5.1-2.6,2.8-3,5.9-1.3,9.6,2.3,5.2,10,6.5,15.2,2.7l2.9-2.2,1.4,2.1c1.1,1.5,2.6,2.1,5.5,2.1,3.7,0,3.9-.2,3.9-3,0-2.3-.4-3-2-3-1.9,0-2-.7-2-9,0-10.2-1.5-14.5-5.6-16-2.5-1-8-1.1-11.9-.3Zm8.4,23.9c-2.8,3-6.3,3.1-8.3.2-2.2-3.1-.1-6,5.5-7.3l4.4-1.1.3,2.9c.2,2-.4,3.7-1.9,5.3Z"/>
  <path class="cls-15" d="m575.5,304.86c-1.6.5-3.9,1.6-4.9,2.4-1.6,1.2-1.8,1.9-.8,4l1.2,2.5,3.2-2c4.5-2.7,10.4-2.7,11.3.1,1,2.9-.9,4.3-7.5,5.8-7.3,1.6-10,4.2-10,9.7,0,3.4.5,4.7,2.6,6.3,3.5,2.7,9.3,2.8,12.2.1,1.2-1.1,2.5-2,3-2s1.7.9,2.7,2c1.8,2,4.1,2.5,6.9,1.4,2.2-.9,2-4.1-.3-4.9-1.7-.5-2-1.8-2.3-10.5-.3-9.1-.5-10.2-2.8-12.5-2.9-2.8-9.7-4-14.5-2.4Zm10.5,19c0,3.7-3.2,6.9-7,6.9-3.3,0-5.5-2.9-4.5-6,.6-1.9,9.1-5.3,10.8-4.3.4.2.7,1.7.7,3.4Z"/>
  <path class="cls-15" d="m641.5,304.76c-9.3,2.9-8.2,14.1,1.7,16.9,6.4,1.8,8.8,3.2,8.8,5.2,0,4.1-8.1,4.8-12.2,1.1-1.6-1.4-2-1.3-3.8.3-2.8,2.5-2.6,3.2,2.2,5.6,3.2,1.6,5.4,2,9.5,1.7,7-.6,10.3-3.5,10.3-9,0-5.2-3.2-8.4-9.3-9.3-5.3-.8-8.6-3.7-6.8-5.9,1.8-2.1,4.5-2.5,8.6-1,3.4,1.1,4,1.1,5.1-.4,1.1-1.4,1-2-.4-3.4-2.1-2-9.7-3-13.7-1.8Z"/>
  <path class="cls-15" d="m771.1,305.46c-5.1,2.5-7.1,6.6-7.1,14.3,0,10.7,4.8,16,14.5,16,6.7,0,11-2.4,13.5-7.4,3.7-7.8,1.9-17.5-4.2-21.9-3.7-2.8-12.3-3.3-16.7-1Zm12.4,6.8c2.1,2,2.5,3.4,2.5,8,0,6.6-2.2,9.5-7.3,9.5-4.3,0-6.7-2.6-7.4-7.9-1.3-9.5,6.4-15.5,12.2-9.6Z"/>
  <path class="cls-15" d="m816,304.46c-.8.3-2.5,1.5-3.7,2.6l-2.3,2v-2.1c0-1.8-.6-2.2-3.5-2.2h-3.5v31h7v-10.1c0-5.5.4-10.8,1-11.8.5-1,2.3-2.4,4-3.1,2.5-1,3.5-1,5.5,0,2.3,1.3,2.5,1.8,2.7,12.9l.3,11.6,3.8.3,3.7.3v-12.1c0-13.4-1.2-17.4-5.6-19-2.7-1.1-7-1.2-9.4-.3Z"/>
  <path class="cls-15" d="m321,317.76c0,12.6.1,13.2,2.5,15.5,3.4,3.5,10.2,3.5,14.4-.1l3.1-2.6v2.6c0,2.3.4,2.6,3.5,2.6h3.5v-31h-7v8.7c0,11.2-1.9,15.6-6.8,16.1-5.2.5-6.1-1.5-6.2-14.1v-10.7h-7v13Z"/>
  <polygon class="cls-15" points="382 320.26 382 335.76 386 335.76 390 335.76 390 320.26 390 304.76 386 304.76 382 304.76 382 320.26"/>
  <path class="cls-15" d="m422.2,317.16c.3,10.8.6,12.8,2.4,15.3,1.7,2.3,3,2.9,7.1,3.1,4.2.2,5.5-.1,8.2-2.3l3.1-2.7v2.6c0,2.3.4,2.6,3.5,2.6h3.5v-31h-6.8l-.4,10.4c-.4,11.9-1.7,14.6-7.3,14.6-5,0-5.5-1.3-5.5-13.7v-11.3h-8.2l.4,12.4Z"/>
  <path class="cls-15" d="m599,305.06c0,.7,6,16.5,8.9,23.7,3.7,8.9,3.7,9,1.1,11.8-1.5,1.6-3.3,2.2-6,2.2-3.8,0-4,.2-4,3s.2,3,4,3c4.9,0,9.1-2,11.3-5.4,1.7-2.5,14.7-36.1,14.7-37.8,0-.5-1.5-.8-3.2-.6-3.2.3-3.4.6-6.8,10.5-3.5,10.2-5.2,12.4-6.6,8-.3-1.2-2-5.9-3.6-10.5-2.9-8.1-3-8.2-6.4-8.2-1.9,0-3.4.1-3.4.3Z"/>
  <path class="cls-15" d="m741,320.26v15.5h7v-9.8c0-11.6,1.1-13.9,6.8-14.4,3.4-.3,3.7-.6,4-3.6s.1-3.2-2.9-3.2c-2,0-4.2.9-5.6,2.2l-2.3,2.1v-2.1c0-1.8-.6-2.2-3.5-2.2h-3.5v15.5Z"/>
  <path class="cls-15" d="m477.2,327.96c-1.9,1.9-1.4,5.6.8,7,2.6,1.7,2.5,3-.5,6.6-2.8,3.3-3.2,5.2-1.2,5.2,3,0,7.6-6.3,9.1-12.4,1.3-5.4-4.6-10-8.2-6.4Z"/>
  <path class="cls-17" d="m19,370.96c0,.4,196,.8,435.7.8s435.4-.3,435-.6c-.9-.9-870.7-1.2-870.7-.2Z"/>
</svg>